# xmcd
# 
# Track frame offsets:
#     150
#     17775
#     31977
#     47570
#     65007
#     83025
#     94787
#     110140
#     125135
#     141642
#     158570
#     172657
#     184202
#     203032
# 
# Disc length: 2899
# 
# Revision: 3
# Processed by: cddbd v1.5.2PL0 Copyright (c) Steve Scherf et al.
# Submitted via: BonkEnc v1.0.8
# 
DISCID=c10b510e
DTITLE=João Mineiro and Marciano - Bis 2 CD's - Disco 2
DYEAR=0
DGENRE=Country
TTITLE0=Romaria
TTITLE1=Te Amo Mas Adeus
TTITLE2=Se Eu Pudesse Conversar Com Deus
TTITLE3=Amor Tem Que Ser Amor
TTITLE4=Milagre da Flecha
TTITLE5=Vestido de Noiva
TTITLE6=Tudo Passará
TTITLE7=Cilada
TTITLE8=Seu Amor Ainda é Tudo
TTITLE9=Eu Daria a Minha Vida
TTITLE10=Meu Desespero
TTITLE11=Whisky Com Gelo
TTITLE12=Distante dos Olhos (Lontano Dagli Occhi)
TTITLE13=Ex-mulher
EXTD=ripado por pelers@gmail.com
EXTT0=
EXTT1=
EXTT2=
EXTT3=
EXTT4=
EXTT5=
EXTT6=
EXTT7=
EXTT8=
EXTT9=
EXTT10=
EXTT11=
EXTT12=
EXTT13=
PLAYORDER=
